<?xml version="1.0" encoding="utf-8"?>
<!-- Generator: Adobe Illustrator 23.0.6, SVG Export Plug-In . SVG Version: 6.00 Build 0)  -->
<svg version="1.1" id="Objects" xmlns="http://www.w3.org/2000/svg" xmlns:xlink="http://www.w3.org/1999/xlink" x="0px" y="0px"
	 viewBox="0 0 182.8 182.8" style="enable-background:new 0 0 182.8 182.8;" xml:space="preserve">
<style type="text/css">
	.st0{fill:#FF9900;}
	.st1{fill:#99621A;}
</style>
<g>
	<path class="st0" d="M123.8,176.8c4.4-1.7,8.7-3.7,12.7-6c27.6-15.8,46.2-45.4,46.2-79.4c0-33.9-18.6-63.6-46.2-79.4
		c-4.1-2.3-8.3-4.4-12.8-6c-10.1-3.9-21-6-32.5-6C79.9,0,69,2.1,58.9,6c-4.4,1.7-8.7,3.7-12.8,6C18.6,27.8,0,57.4,0,91.4
		c0,34,18.6,63.6,46.2,79.4c4.1,2.3,8.3,4.3,12.7,6c10.1,3.9,21,6,32.5,6C102.8,182.8,113.7,180.6,123.8,176.8z M91.4,13.8
		c9,0,17.7,1.6,25.8,4.4c-3.6,4.2-8.4,8.2-13.7,12.2c-3.8,2.9-7.9,5.7-12.1,8.5c-3.9-2.6-7.8-5.3-11.4-8
		c-5.6-4.1-10.6-8.4-14.4-12.7C73.6,15.4,82.3,13.8,91.4,13.8z M13.8,91.4c0-28.6,15.6-53.7,38.8-67.1c4.1,5.4,9.5,10.4,15.5,15.1
		c3.5,2.7,7.2,5.4,10.9,8c-4.1,2.8-8,5.7-11.8,8.6C54.6,66.1,44.8,77.3,44.8,91.4c0,14.2,9.8,25.5,22.6,35.8c4-2.8,8-5.6,11.9-8.2
		c-11.6-8.8-20.7-17.9-20.7-27.5c0-9.6,9.1-18.6,20.7-27.3c3.8-2.9,7.9-5.7,12.1-8.5c1.3-0.9,2.5-1.7,3.8-2.5
		c2.8-1.9,5.7-3.8,8.5-5.8c4.1-2.8,8-5.7,11.8-8.6c5.7-4.5,10.8-9.3,14.7-14.4c23.2,13.4,38.8,38.5,38.8,67.1
		c0,28.7-15.7,53.9-39,67.3c-3.9-5-9-9.7-14.6-14.2c-3.7-3-7.7-5.8-11.7-8.6c18.1-12.6,34.4-26.1,34.4-44.4
		c0-14.1-9.8-25.4-22.5-35.5c-1.2,0.9-2.5,1.8-3.9,2.7c-2.7,1.9-5.4,3.7-8.1,5.5c11.6,8.7,20.7,17.7,20.7,27.3
		c0,12.8-16,24.6-32.8,36c-1.4,1-2.8,1.9-4.2,2.8c-2.7,1.8-5.4,3.7-8.1,5.5c-10.2,7.1-19.9,14.5-26.3,22.8
		C29.5,145.2,13.8,120.1,13.8,91.4z M91.4,144.2c4.1,2.8,8.2,5.7,12,8.5c5.2,3.9,9.9,7.9,13.5,11.9c-8,2.8-16.6,4.3-25.5,4.3
		c-9,0-17.5-1.5-25.6-4.4C72.1,157.6,81.6,150.8,91.4,144.2z"/>
	<path class="st1" d="M95,141.7c-1.2,0.8-2.4,1.6-3.6,2.5c4.1,2.8,8.2,5.7,12,8.5c3.9-2.7,8-5.4,11.9-8.3c-3.7-3-7.7-5.8-11.7-8.6
		C100.8,137.8,97.9,139.8,95,141.7z"/>
	<path class="st1" d="M87.4,41.6c1.3-0.9,2.6-1.8,3.9-2.7c-3.9-2.6-7.8-5.3-11.4-8c-3.6,2.3-8.1,5.4-11.8,8.4
		c3.5,2.7,7.2,5.4,10.9,8C81.9,45.4,84.6,43.5,87.4,41.6z"/>
</g>
</svg>
